<svg width="137" height="137" fill="none" xmlns="http://www.w3.org/2000/svg"><g clip-path="url(#a)" fill-rule="evenodd" clip-rule="evenodd"><path d="M68.5 0C106.321 0 137 30.679 137 68.5S106.321 137 68.5 137 0 106.321 0 68.5 30.679 0 68.5 0Z" fill="#454545"/><path d="M68.5.609c37.497 0 67.932 30.435 67.932 67.932 0 37.496-30.435 67.932-67.932 67.932-37.496 0-67.932-30.436-67.932-67.932C.608 31.004 31.004.609 68.5.609Z" fill="#FC0"/><path d="M68.622 135.215c36.725-.082 66.512-29.949 66.512-66.715 0-.528 0-1.096-.041-1.623h-5.925c0 .527.041 1.096.041 1.623 0 33.52-27.108 60.709-60.587 60.79v5.925Z" fill="#E21C2A"/><path d="M68.622 135.214c18.383-.04 35.021-7.548 47.033-19.6.73-.771 1.501-1.542 2.191-2.313l.041-.041c.365-.405.69-.771 1.055-1.177.365-.405.69-.811 1.014-1.217l.974-1.217.082-.122c.284-.365.568-.771.892-1.136l.082-.122c.284-.406.568-.771.852-1.177l.04-.041a57.361 57.361 0 0 0 1.745-2.597l.041-.04c.284-.447.568-.852.811-1.299.285-.446.528-.933.812-1.38l.041-.121c.243-.447.487-.852.73-1.299l.041-.122c.243-.446.446-.852.69-1.298l.121-.244.609-1.217.041-.04c.202-.447.446-.934.649-1.421.04-.081.081-.162.122-.284.162-.406.365-.812.527-1.217.041-.122.081-.244.162-.366.163-.365.325-.77.487-1.136.041-.162.122-.284.163-.446.121-.366.284-.73.406-1.055.081-.163.121-.325.162-.487.122-.325.243-.69.365-1.015.081-.243.162-.446.203-.69.081-.284.203-.568.284-.893.081-.203.122-.446.203-.649.081-.325.203-.609.284-.933.041-.163.081-.284.122-.447.122-.365.203-.77.324-1.136.041-.122.082-.284.122-.406.081-.406.203-.77.284-1.177.041-.202.081-.405.122-.568.081-.324.162-.69.243-1.014.041-.284.122-.568.163-.852.04-.244.081-.528.162-.771.041-.244.081-.447.122-.69.04-.325.122-.65.162-.974.081-.528.162-1.096.244-1.623l.121-1.218c0-.162.041-.284.041-.446.041-.325.041-.65.081-.934.041-.243.041-.487.081-.73l.122-1.704c.041-.569.041-1.137.081-1.705 0-.568.041-1.136.041-1.704V67.04h-.934c0 .527.041 1.095.041 1.622 0 36.239-29.34 65.66-65.578 65.781v.771h-.122Z" fill="#fff"/><path d="M68.622 129.33c33.479-.121 60.587-27.31 60.587-60.79 0-.527 0-1.095-.041-1.623h-5.924c0 .528.04 1.096.04 1.624 0 30.232-24.47 54.783-54.662 54.905v5.884Z" fill="#fff"/><path d="M68.622 123.406c30.192-.122 54.662-24.633 54.662-54.906 0-.528 0-1.096-.04-1.623h-5.925c0 .527.04 1.096.04 1.623 0 26.986-21.832 48.859-48.737 48.981v5.925Z" fill="#E21C2A"/><path d="M118.333 66.877h-.974c0 .527.04 1.096.04 1.623 0 26.986-21.832 48.859-48.737 48.981v.974c27.473-.122 49.752-22.441 49.752-49.955a21.511 21.511 0 0 1-.081-1.623Z" fill="#fff"/><path d="M68.297 135.215C31.53 135.133 1.785 105.266 1.785 68.5c0-.528 0-1.096.04-1.623H19.56c0 .527-.04 1.096-.04 1.623 0 26.986 21.832 48.859 48.737 48.981v17.734h.04Z" fill="#E21C2A"/><path d="M68.094 135.215c-18.302-.122-34.859-7.589-46.83-19.601-.73-.771-1.502-1.542-2.191-2.313l-.041-.041c-.365-.405-.69-.771-1.055-1.176a26.85 26.85 0 0 1-1.015-1.218l-.973-1.217-.082-.122c-.284-.365-.568-.771-.893-1.136l-.08-.122c-.285-.406-.569-.771-.853-1.177l-.04-.04a58.392 58.392 0 0 1-1.745-2.598l-.041-.04c-.284-.447-.568-.852-.812-1.299-.284-.446-.527-.933-.811-1.379l-.04-.122c-.244-.447-.488-.852-.731-1.299l-.04-.122c-.244-.446-.447-.852-.69-1.298l-.122-.244-.61-1.217-.04-.04c-.203-.447-.446-.934-.649-1.42-.04-.082-.081-.163-.122-.285-.162-.406-.365-.812-.527-1.217a1.4 1.4 0 0 0-.163-.366c-.162-.365-.324-.77-.487-1.136-.04-.162-.121-.284-.162-.446-.122-.365-.284-.73-.406-1.055a2.29 2.29 0 0 1-.162-.487c-.122-.325-.243-.69-.365-1.015-.081-.243-.163-.446-.203-.69-.081-.284-.203-.568-.284-.892-.081-.203-.122-.447-.203-.65-.081-.324-.203-.609-.284-.933-.04-.162-.081-.284-.122-.447-.122-.365-.203-.77-.325-1.136-.04-.121-.08-.284-.121-.406-.081-.405-.203-.77-.284-1.176-.04-.203-.082-.406-.122-.569-.081-.324-.162-.69-.244-1.014-.04-.284-.121-.568-.162-.852-.04-.244-.081-.528-.162-.771-.04-.244-.081-.447-.122-.69-.04-.325-.122-.65-.162-.974-.081-.528-.163-1.096-.244-1.623-.04-.406-.08-.812-.122-1.218 0-.162-.04-.284-.04-.446-.04-.325-.04-.65-.081-.933-.04-.244-.04-.487-.081-.73l-.122-1.705c-.04-.568-.04-1.136-.081-1.705 0-.568-.04-1.136-.04-1.704V67.04h.932c0 .527-.04 1.095-.04 1.622 0 36.198 29.218 65.538 65.375 65.781v-.933c-35.508-.406-64.28-29.34-64.28-65.01 0-.528 0-1.096.041-1.623h.933c0 .527-.04 1.096-.04 1.623 0 35.143 28.366 63.671 63.468 63.874V120.2C39.728 119.956 16.8 96.906 16.8 68.5c0-.528 0-1.096.04-1.623h.934c0 .527-.04 1.096-.04 1.623 0 27.879 22.522 50.523 50.36 50.766v-.811c-27.392-.244-49.549-22.522-49.549-49.955 0-.528 0-1.096.04-1.623h.975c0 .527-.041 1.096-.041 1.623 0 26.905 21.71 48.737 48.534 48.981v-.041h.853v17.896h-.853v-.121h.04Zm.244-133.47c36.319 0 65.821 29.015 66.714 65.091H1.623C2.516 30.76 32.06 1.745 68.338 1.745Z" fill="#FC0"/><path d="M2.76 65.943H134.2C132.861 30.72 103.887 2.72 68.5 2.72c-35.345 0-64.36 28-65.74 63.224Z" fill="#fff"/><path d="M68.5 7.71c33.032 0 59.937 26.337 60.789 59.167H7.71C8.603 34.047 35.467 7.71 68.5 7.71Z" fill="#FC0"/><path d="M8.684 65.943h119.591c-1.34-31.936-27.717-57.3-59.816-57.3-32.059 0-58.396 25.323-59.775 57.3Z" fill="#002ED3"/><path d="M68.338 13.595c29.745 0 54.012 23.699 54.865 53.241H13.473c.852-29.542 25.119-53.242 54.865-53.242Z" fill="#FC0"/><path d="M14.608 65.944H122.35c-1.339-28.691-25.038-51.376-53.891-51.376-28.772 0-52.47 22.685-53.85 51.376Z" fill="#E21C2A"/><path d="M68.378 19.52c27.027 0 48.981 21.953 48.981 48.98 0 27.027-21.954 48.981-48.98 48.981-27.028 0-48.982-21.954-48.982-48.981s21.955-48.98 48.981-48.98Z" fill="#FC0"/><path d="M68.378 20.33c26.58 0 48.169 21.59 48.169 48.17 0 26.58-21.589 48.169-48.169 48.169S20.21 95.121 20.21 68.499c0-26.58 21.589-48.168 48.17-48.168Z" fill="#fff"/><path d="M83.961 99.422c-2.029 1.867-4.22 3.856-6.614 5.154-.893.487-1.786.852-2.72 1.218-2.19.852-3.733 1.542-5.559 3.084-.284.243-.568.203-.893-.041-1.826-1.542-3.368-2.232-5.56-3.084-.933-.365-1.825-.73-2.718-1.217-2.394-1.299-4.586-3.287-6.615-5.154l-2.475.284-.162-.487c-1.218-3.896-1.461-8.076.973-11.566l.65-.933.406 1.096c1.014 2.881 2.678 5.438 4.95 7.507l.73.65-.932.324c-.771.284-1.42.73-1.908 1.34l3.247 1.46c1.38.244 2.678 1.015 4.098.203 2.76-1.542 3.003-8.197 3.044-10.835l.203-11.078.122-3.49.69-20.697h-4.302a.944.944 0 0 1-.934-.933V50.32c0-.487.406-.934.934-.934h2.353a5.707 5.707 0 0 1-2.313-4.626 5.759 5.759 0 0 1 5.763-5.762 5.759 5.759 0 0 1 5.762 5.762c0 1.908-.933 3.572-2.313 4.627h2.638c.487 0 .933.405.933.933v1.948a.944.944 0 0 1-.933.933h-4.261l.812 24.227.203 11.078c.04 2.597.284 9.293 3.043 10.835 1.42.812 2.719 0 4.099-.203l3.246-1.46c-.487-.61-1.136-1.056-1.907-1.34l-.933-.324.73-.65c2.273-2.07 3.896-4.626 4.95-7.507l.407-1.096.649.934c2.435 3.49 2.191 7.67.974 11.565l-.162.487-2.395-.325ZM68.5 42.285a2.529 2.529 0 0 1 2.516 2.516 2.529 2.529 0 0 1-2.516 2.516 2.529 2.529 0 0 1-2.516-2.516 2.529 2.529 0 0 1 2.516-2.516Z" fill="#2C2C2B"/><path d="M68.662 52.146h1.055l.69 21.751.122 3.49.203 11.079c.243 15.055 6.046 11.484 7.913 11.16l3.977-1.786c-.609-.974-1.461-1.705-2.597-2.11 2.353-2.192 4.058-4.789 5.113-7.751 1.948 2.8 2.313 6.493.893 11.038l-2.273-.284c-2.272 2.11-4.423 4.017-6.696 5.275-2.76 1.501-5.032 1.542-8.36 4.342-.08.041-.04.041-.121-.04-3.328-2.801-5.6-2.841-8.36-4.343-2.272-1.258-4.423-3.165-6.695-5.275l-2.273.284c-1.42-4.545-1.055-8.238.893-11.038 1.055 2.922 2.719 5.56 5.113 7.751a5.003 5.003 0 0 0-2.597 2.11l3.977 1.786c1.866.284 7.67 3.855 7.913-11.16l.203-11.078.122-3.49.69-21.752h1.095v.041Z" fill="#FC0"/><path d="M68.947 55.23v48.535c1.826-.041 3.408-.244 4.829-.569 1.542-.365 2.88-.852 4.058-1.501 1.38-.73 2.719-1.704 3.814-2.84.974-1.015 1.826-2.151 2.354-3.45.406-.974.69-2.07.812-3.328a17.97 17.97 0 0 0 .08-3.327c0-.081-.04-.122 0-.203l.244-.609.325.609c.04.04 0 .122 0 .162.081 1.218.04 2.354-.081 3.45-.163 1.298-.447 2.475-.853 3.49-.568 1.339-1.46 2.556-2.475 3.652a17.478 17.478 0 0 1-3.977 2.962 16.886 16.886 0 0 1-4.18 1.542c-1.46.325-3.084.528-4.95.568v3.328h-.61v-3.328c-1.866-.04-3.49-.243-4.95-.568a16.885 16.885 0 0 1-4.18-1.542c-1.42-.771-2.8-1.745-3.977-2.962-1.055-1.055-1.907-2.273-2.475-3.653-.447-1.014-.73-2.19-.852-3.49a19.217 19.217 0 0 1-.081-3.449v-.162l.324-.609.244.609c.04.081 0 .122 0 .203a17.876 17.876 0 0 0 .08 3.327c.123 1.218.407 2.354.812 3.328.528 1.299 1.38 2.435 2.354 3.45a16.948 16.948 0 0 0 3.815 2.84c1.176.649 2.516 1.136 4.058 1.501 1.42.325 3.003.528 4.829.569V55.23h.609Z" fill="#2C2C2B"/><path d="M68.621 49.995h5.925a.35.35 0 0 1 .325.325v1.948a.35.35 0 0 1-.325.325H62.697a.35.35 0 0 1-.325-.325V50.32a.35.35 0 0 1 .325-.325h5.924ZM68.5 39.607a5.178 5.178 0 0 1 5.194 5.194 5.178 5.178 0 0 1-5.194 5.194 5.178 5.178 0 0 1-5.195-5.194c0-2.881 2.354-5.194 5.195-5.194Zm0 2.029a3.17 3.17 0 0 1 3.165 3.165 3.17 3.17 0 0 1-3.165 3.165 3.17 3.17 0 0 1-3.165-3.165 3.17 3.17 0 0 1 3.165-3.165Z" fill="#FC0"/><path d="m73.978 68.013-.081.04-.244-.121c-.324-.163-.69-.244-1.014-.406l-.974-.487.933-.568c1.502-.893 2.963-2.313 4.18-3.571 1.177-1.136 2.354-2.354 3.612-3.409 1.46-1.217 2.8-1.785 4.707-1.948.203 0 .365-.04.568-.04 1.826-.081 3.653.487 5.357 1.055 4.18 1.38 8.197 3.45 12.458 4.545 1.786.284 4.139.487 5.884-.163.528-.162 1.177-.243 1.542.244.406.568.082 1.299-.284 1.745a7.616 7.616 0 0 1-.811.811l-.163.406c-.446 1.218-1.298 2.03-2.434 2.273-.569 1.542-1.461 2.07-2.963 2.029-.568 1.542-1.623 1.664-2.962 1.583l-.041.08c-.568 1.056-1.866 1.218-3.246 1.015-.284.487-.69.852-1.218 1.015-1.014.365-2.19.04-3.287-.366-.08.122-.121.244-.284.325-1.258.812-2.962.447-4.463-.203-.082.122-.122.203-.285.284-3.49 1.948-6.655-2.07-9.496-3.327-.243-.122-.527-.203-.608-.447-.447-.08-.852-.324-1.461-.69l-2.922-1.704Z" fill="#2C2C2B"/><path d="M73.856 67.404c-.324-.162-.69-.243-1.014-.405 2.556-1.543 5.478-5.032 7.913-7.021 1.34-1.136 2.597-1.664 4.342-1.826.162 0 .365-.04.528-.04 1.745-.082 3.53.486 5.153 1.014 4.18 1.339 8.279 3.49 12.54 4.545 2.84.446 4.829.325 6.209-.203 1.663-.568.933 1.46-.974 2.272-1.258.528-2.597.285-3.896.041-2.719-.487-5.438-1.42-8.238-2.597-2.394-1.015-4.626-2.354-7.142-3.125-2.394-.73-4.423-.893-6.128-.122-2.678 1.218-5.072 5.317-9.293 7.467Z" fill="#FC0"/><path d="M82.216 60.992c3.611-2.921 9.13.244 12.823 1.948.406.203.487.163.487.61-.04.243-.325.405-.69.486-.77.162-1.339-.122-2.07-.406-3.368-1.258-6.695-2.84-10.388-2.475-.365 0-.487.081-.162-.163Z" fill="#FC0"/><path d="M94.309 64.442c1.014-.122 1.623-.447 1.663-1.055 2.922 1.339 6.859 2.678 10.511 3.043 1.055.081 1.704-.122 2.556-.406-.487 1.42-1.623 2.07-3.043 1.989-3.815-.284-7.264-1.218-11.687-3.571ZM80.43 62.494c.446-.365.73-.812 1.299-.893 3.57-.649 7.994 1.258 11.119 2.476.852.324.324.974-.325 1.095-.77.163-1.339.082-2.07-.203-3.368-1.258-6.046-3.165-9.901-2.313-.325.081-.487.122-.122-.162Z" fill="#FC0"/><path d="M91.834 65.578c1.055-.04 1.785-.365 1.826-.974 2.719 1.218 7.873 3.977 13.026 3.653-.486 1.42-1.258 1.744-2.678 1.663-1.542-.121-3.043-.527-4.626-1.055-2.354-.73-4.91-1.866-7.548-3.287ZM78.97 63.874c.446-.366.771-.73 1.299-.852 3.611-.893 6.776.933 9.901 2.232.852.365.406.892-.243 1.014-.771.162-1.34.081-2.07-.203-3.368-1.258-4.87-2.881-8.725-2.029-.324.04-.487.122-.162-.162Z" fill="#FC0"/><path d="M89.195 66.674c1.055-.04 1.786-.366 1.826-.974 1.867.77 7.589 3.977 12.662 4.545-.487 1.42-1.502 1.298-2.922 1.217-2.72-.162-9.171-3.49-11.566-4.788Zm-11.443-1.583c.446-.365.406-.487.933-.65 3.855-1.095 5.965.69 9.09 1.99.852.365.609.73-.04.852-.771.162-1.258-.163-1.989-.406-3.328-1.055-3.814-1.948-7.832-1.664-.365.04-.487.122-.162-.122Z" fill="#FC0"/><path d="M87.005 67.729c1.014-.04 1.623-.325 1.664-.933 1.42.608 5.153 2.8 9.009 4.22.974.365 2.029.77 3.003.852-1.624 3.044-11.606-3.45-13.676-4.14Zm-10.308-1.826c.447-.366.365-.366.893-.406 4.707-.203 5.154.811 7.832 1.704.893.284.446.771-.203.812-2.435.203-5.194-2.354-8.197-1.948-.325.04-.69.122-.325-.162Z" fill="#FC0"/><path d="M84.731 68.5c1.015-.04 1.502-.203 1.502-.812 3.45 1.38 7.75 4.464 11.281 5.073a1.74 1.74 0 0 1-.933.852c-1.258.487-3.044-.446-4.14-.974-3.083-1.42-6.573-3.774-7.71-4.139Zm-2.353.609c.771-.081 1.218-.284 1.461-.73 3.165 1.541 5.925 3.651 9.171 5.031-.04.081-.08.163-.122.203-2.759 1.745-8.603-3.165-10.632-4.342-.405-.203-.243-.122.122-.162Z" fill="#FC0"/><path d="M79.213 70.123c.771-.081 1.502-.446 1.826-.812.041-.08.082-.121.122-.202.162.08.325.162.447.284 2.516 1.501 3.57 2.84 6.695 4.098a.884.884 0 0 1-.121.203c-3.125 1.745-6.331-2.191-8.969-3.368-.405-.162-.446-.162 0-.203Zm-3.409-3.49c.447-.365.366-.243.893-.284.852-.04 1.705-.081 2.476.162 1.217.366 2.353 1.096 3.692 1.42.325.082.487.163.487.244.081.325-.974.812-1.785.65-1.745-.366-2.678-1.502-5.438-1.989-.325-.081-.65.081-.325-.203Zm1.38 2.597-2.76-1.623.934-.609c.406 0 1.299.203 2.273.61.933.405 2.07.77 2.597 1.257.487.447 0 .65-.852.893-1.056.243-1.258 0-2.192-.528Z" fill="#FC0"/><path d="m62.86 68.013.08.04.244-.121c.325-.163.69-.244 1.014-.406l.975-.487-.934-.568c-1.501-.893-2.962-2.313-4.18-3.571-1.176-1.136-2.353-2.354-3.611-3.409-1.461-1.217-2.8-1.785-4.708-1.948-.203 0-.365-.04-.568-.04-1.826-.081-3.652.487-5.356 1.055-4.18 1.38-8.157 3.45-12.459 4.545-1.785.284-4.139.487-5.884-.163-.527-.162-1.177-.243-1.542.244-.406.568-.081 1.299.284 1.745.244.284.528.568.812.811l.162.406c.447 1.218 1.299 2.03 2.435 2.273.568 1.542 1.46 2.07 2.962 2.029.568 1.542 1.623 1.664 2.963 1.583l.04.08c.568 1.056 1.867 1.218 3.247 1.015.284.487.69.852 1.217 1.015 1.015.365 2.192.04 3.287-.366.081.122.122.244.284.325 1.258.812 2.963.447 4.464-.203.081.122.122.203.284.284 3.49 1.948 6.655-2.07 9.496-3.327.243-.122.527-.203.609-.447.446-.08.852-.324 1.46-.69l2.922-1.704Z" fill="#2C2C2B"/><path d="M62.982 67.404c.324-.162.69-.243 1.014-.405-2.556-1.543-5.478-5.032-7.913-7.021-1.34-1.136-2.597-1.664-4.342-1.826-.163 0-.365-.04-.528-.04-1.745-.082-3.53.486-5.154 1.014-4.18 1.339-8.278 3.49-12.539 4.545-2.84.446-4.829.325-6.209-.203-1.663-.568-.933 1.46.974 2.272 1.258.528 2.597.285 3.896.041 2.719-.487 5.438-1.42 8.238-2.597 2.394-1.015 4.626-2.354 7.142-3.125 2.394-.73 4.423-.893 6.128-.122 2.678 1.218 5.072 5.317 9.293 7.467Z" fill="#FC0"/><path d="M54.622 60.992c-3.612-2.921-9.13.244-12.824 1.948-.405.203-.486.163-.486.61.04.243.324.405.69.486.77.162 1.338-.122 2.069-.406 3.368-1.258 6.696-2.84 10.389-2.475.324 0 .487.081.162-.163Z" fill="#FC0"/><path d="M42.489 64.442c-1.015-.122-1.624-.447-1.664-1.055-2.922 1.339-6.858 2.678-10.51 3.043-1.056.081-1.705-.122-2.557-.406.487 1.42 1.623 2.07 3.043 1.989 3.856-.284 7.305-1.218 11.688-3.571Zm13.918-1.948c-.446-.365-.73-.812-1.298-.893-3.571-.649-7.994 1.258-11.12 2.476-.851.324-.324.974.326 1.095.77.163 1.339.082 2.07-.203 3.367-1.258 6.046-3.165 9.9-2.313.285.081.447.122.123-.162Z" fill="#FC0"/><path d="M45.005 65.578c-1.055-.04-1.786-.365-1.826-.974-2.72 1.218-7.873 3.977-13.027 3.653.487 1.42 1.258 1.744 2.679 1.663 1.542-.121 3.043-.527 4.626-1.055 2.353-.73 4.91-1.866 7.548-3.287Zm12.863-1.704c-.446-.366-.771-.73-1.299-.852-3.611-.893-6.777.933-9.901 2.232-.852.365-.406.892.243 1.014.771.162 1.34.081 2.07-.203 3.368-1.258 4.87-2.881 8.725-2.029.324.04.487.122.162-.162Z" fill="#FC0"/><path d="M47.602 66.674c-1.056-.04-1.786-.366-1.827-.974-1.866.77-7.588 3.977-12.66 4.545.486 1.42 1.5 1.298 2.921 1.217 2.76-.162 9.212-3.49 11.566-4.788Zm11.484-1.583c-.447-.365-.406-.487-.934-.65-3.855-1.095-5.965.69-9.09 1.99-.852.365-.608.73.041.852.771.162 1.258-.163 1.988-.406 3.328-1.055 3.815-1.948 7.832-1.664.325.04.487.122.163-.122Z" fill="#FC0"/><path d="M49.793 67.729c-1.015-.04-1.623-.325-1.664-.933-1.42.608-5.154 2.8-9.009 4.22-.974.365-2.029.77-3.003.852 1.664 3.044 11.647-3.45 13.676-4.14Zm10.348-1.826c-.446-.366-.365-.366-.893-.406-4.707-.203-5.153.811-7.832 1.704-.892.284-.446.771.203.812 2.435.203 5.194-2.354 8.197-1.948.284.04.65.122.325-.162Z" fill="#FC0"/><path d="M52.106 68.5c-1.014-.04-1.501-.203-1.501-.812-3.45 1.38-7.751 4.464-11.282 5.073.203.406.528.69.934.852 1.258.487 3.043-.446 4.139-.974 3.043-1.42 6.574-3.774 7.71-4.139Zm2.354.609c-.772-.081-1.218-.284-1.462-.73-3.165 1.541-5.924 3.651-9.17 5.031.04.081.08.163.12.203 2.76 1.745 8.604-3.165 10.633-4.342.406-.203.243-.122-.122-.162Z" fill="#FC0"/><path d="M57.625 70.123c-.77-.081-1.501-.446-1.826-.812-.04-.08-.081-.121-.122-.202-.162.08-.324.162-.446.284-2.516 1.501-3.571 2.84-6.696 4.098a.88.88 0 0 0 .122.203c3.125 1.745 6.33-2.191 8.968-3.368.365-.162.447-.162 0-.203Zm3.409-3.49c-.447-.365-.365-.243-.893-.284-.852-.04-1.704-.081-2.475.162-1.218.366-2.354 1.096-3.693 1.42-.325.082-.487.163-.487.244-.081.325.974.812 1.785.65 1.745-.366 2.679-1.502 5.438-1.989.325-.081.65.081.325-.203Zm-1.38 2.597 2.76-1.623-.934-.609c-.406 0-1.298.203-2.272.61-.934.405-2.07.77-2.598 1.257-.486.447 0 .65.853.893 1.055.243 1.258 0 2.191-.528Z" fill="#FC0"/><path d="M83.718 86.071 41.19 42.488c-.893-.974-1.42-1.989-1.502-3.287-.04-.325-.04-.568-.081-.934l-.04-.608.77.04c.366 0 .73 0 1.096.041 1.177.122 2.11.65 3.003 1.502L88.02 81.77c-2.922 3.206-2.232 1.258-4.302 4.301Z" fill="#2C2C2B"/><path d="M93.214 93.66c.69.812 1.501 1.542 2.556 1.826.528.162.853.162 1.258-.284l.284-.284c.366-.365.487-.568.447-1.136-.081-1.38-.852-2.273-1.948-2.922 0-.203-.04-.406-.203-.568l-.365-.365c-.203-.203-.447-.244-.69-.203l-6.087-6.94-1.096-1.46-.811 1.826-3.003 1.907 1.095.893.69.69 6.574 5.803c-.04.243 0 .487.203.649l.365.365c.163.284.487.325.73.203Z" fill="#2C2C2B"/><path d="m86.68 83.799-.284 3.043-.649-.608-.69-.69-.487-.365 2.11-1.38Zm7.386 7.426.081-1.055.447.528-.528.527Zm-.284-1.42-.162 1.867-.852.852-.122-.122.325-3.53.811.933Zm-1.136-1.34-.325 3.612-.811-.73.365-3.815.77.934Zm-1.136-1.298-.366 3.896-.811-.73.406-4.059.77.893Zm-1.177-1.339-.406 4.14-.812-.731.406-4.342.812.933Zm-1.136-1.299-.406 4.424-.812-.73.447-4.627.77.933ZM88.02 83.19l-.447 4.667-.811-.73.365-3.774.406-.853.487.69Zm5.316 9.658 1.177-1.258.04.04c.325.244.73.57 1.056.975.365.406.649.893.73 1.501 0 .082.122.163.203.163.081 0 .162-.122.162-.203-.081-.65-.406-1.218-.811-1.664a6.611 6.611 0 0 0-1.137-1.055l.244-.244c1.258.61 2.15 1.42 2.232 2.76 0 .365-.04.406-.284.69-.082.08-.163.162-.284.284-.244.243-.325.203-.69.121-.934-.284-1.827-.933-2.638-2.11Z" fill="#FC0"/><path d="M95.162 89.886c-.284-.284-.771-.243-1.055.081l-2.03 2.273c-.283.284-.243.77.041 1.055l.365.324c.284.284.771.244 1.055-.08l2.03-2.273c.284-.284.243-.771-.041-1.055l-.365-.325Z" fill="#2C2C2B"/><path d="m94.796 90.332.366.325c.04.04.04.122 0 .203l-2.03 2.272c-.04.081-.162.081-.202.041l-.365-.325c-.041-.04-.041-.121 0-.203l2.029-2.272c.04-.081.121-.081.203-.04Z" fill="#FC0"/><path d="M85.788 84.692 70.976 69.555l-30.72-30.76c-.04 1.34.406 2.313 1.34 3.328l42.325 43.38 1.867-.811Zm.811-.812L71.463 69.068l-30.72-30.72c1.34-.04 2.313.407 3.328 1.34l43.38 42.325-.852 1.867Z" fill="#D9DBDC"/><path d="M90.374 78.442c.73.04 1.542-.405 1.988-.852.609-.609 1.299-1.988.528-2.76-.73-.73-2.192-.162-2.84.488-.488.487-.894 1.339-.813 2.07l-5.843 4.138-4.14 5.844c-.73-.081-1.582.325-2.069.812-.609.608-1.217 2.07-.487 2.84.73.73 2.15.081 2.76-.527.446-.447.892-1.258.852-1.989l6.209-3.814 3.855-6.25Z" fill="#2C2C2B"/><path d="m86.153 84.205-6.452 3.977c.243.365.04 1.217-.609 1.866-.69.69-1.623.852-1.907.528-.284-.284-.203-1.299.487-1.988.609-.61 1.501-.772 1.907-.528l4.302-6.087 6.127-4.302c-.203-.365-.08-1.258.528-1.907.69-.69 1.704-.771 1.988-.487.284.284.122 1.217-.527 1.907-.65.65-1.502.812-1.867.609l-3.977 6.412Z" fill="#FC0"/><path d="M80.715 86.802a.25.25 0 0 0-.04.284c.08.081.202.04.283-.04l4.099-3.775.487.73c.08.082.365.041.446 0 .081-.08.081-.324 0-.405l-.73-.487 3.693-4.099c.08-.08.162-.162.08-.243-.08-.081-.162.04-.243.122l-3.936 3.774-.487-.65c-.081-.08-.325 0-.365.081-.081.082-.122.244-.04.325l.689.447-3.936 3.936Zm-36.969 6.777c-.69.811-1.542 1.501-2.597 1.785-.568.122-.852.163-1.258-.284l-.284-.284c-.365-.406-.487-.568-.446-1.136.08-1.38.893-2.272 1.988-2.881 0-.203.04-.406.203-.568l.365-.366a.706.706 0 0 1 .73-.162l6.21-6.858 1.136-1.42.812 1.826 2.962 1.988-1.136.852-.69.69-6.655 5.682a.748.748 0 0 1-.203.649l-.366.365c-.162.203-.487.244-.77.122Z" fill="#2C2C2B"/><path d="m50.483 83.84.244 3.043.69-.568.69-.69.486-.365-2.11-1.42Zm-7.507 7.304-.081-1.055-.447.487.528.568Zm.284-1.46.162 1.866.852.852.122-.122-.284-3.53-.852.933Zm1.177-1.3.284 3.612.852-.73-.284-3.815-.852.934Zm1.177-1.258.284 3.896.852-.73-.325-4.058-.811.892Zm1.176-1.298.325 4.14.852-.731-.324-4.342-.853.933Zm1.177-1.299.325 4.424.852-.73-.365-4.627-.812.933Zm1.177-1.298.365 4.707.852-.73-.284-3.774-.365-.893-.568.69Zm-5.478 9.536-1.177-1.258-.041.04c-.325.244-.73.569-1.096.975-.365.406-.649.892-.73 1.501 0 .081-.122.163-.203.163-.081 0-.162-.122-.162-.203.08-.65.446-1.218.811-1.664.366-.447.812-.771 1.137-1.015l-.203-.243c-1.258.568-2.151 1.38-2.273 2.719-.04.365 0 .406.284.69l.284.284c.244.243.325.243.69.121.933-.324 1.826-.974 2.678-2.11Z" fill="#FC0"/><path d="m53.12 86.071 42.53-43.583c.892-.974 1.42-1.989 1.5-3.287.041-.325.041-.568.082-.934l.04-.608-.77.04c-.366 0-.73 0-1.096.041-1.177.122-2.11.65-3.003 1.502L48.819 81.77c2.922 3.206 2.192 1.258 4.302 4.301Zm-11.24 3.693c.324-.284.77-.203 1.055.081l1.988 2.314c.284.324.244.77-.08 1.055l-.366.324c-.325.284-.771.203-1.055-.08l-1.989-2.314c-.243-.325-.243-.771.081-1.055l.366-.325Z" fill="#2C2C2B"/><path d="m42.245 90.21-.365.325c-.04.04-.04.122 0 .203l1.988 2.313c.041.081.163.081.203.04l.366-.324c.04-.04.04-.121 0-.203l-1.989-2.313c-.04-.081-.122-.081-.203-.04Z" fill="#FC0"/><path d="m51.01 84.692 14.812-15.137 30.76-30.76c.04 1.34-.405 2.313-1.339 3.328l-42.366 43.34-1.867-.771Zm-.77-.812 15.136-14.812 30.72-30.72c-1.34-.04-2.314.407-3.328 1.34l-43.34 42.325.811 1.867Z" fill="#D9DBDC"/><path d="M56.448 88.587c-.04.73.406 1.542.852 1.989.609.609 1.989 1.299 2.76.568.77-.73.203-2.191-.447-2.84-.487-.488-1.339-.893-2.07-.853l-4.057-5.925-5.803-4.22c.08-.73-.284-1.583-.771-2.07-.609-.649-2.07-1.258-2.8-.527-.771.73-.122 2.15.487 2.76.446.446 1.258.933 1.988.892l3.693 6.25 6.168 3.976Z" fill="#2C2C2B"/><path d="m50.767 84.245-3.855-6.533c-.365.203-1.218.04-1.826-.609-.65-.69-.812-1.623-.528-1.907.325-.284 1.299-.203 1.989.487.608.65.73 1.542.527 1.907l6.047 4.423 4.22 6.169c.365-.203 1.258-.082 1.907.568.65.69.73 1.704.447 1.988-.325.284-1.258.122-1.908-.568-.608-.65-.811-1.501-.568-1.867l-6.452-4.058Z" fill="#FC0"/><path d="M48.251 78.767c-.081-.081-.203-.122-.284-.04-.081.08-.04.202.04.283l3.694 4.14-.73.487c-.082.08-.041.365 0 .446.08.081.324.081.405 0l.487-.73 4.058 3.733c.081.081.162.162.243.081.081-.081 0-.162-.121-.243l-3.734-3.977.65-.447c.08-.08 0-.324-.041-.365-.081-.081-.244-.122-.325-.04l-.446.69-3.896-4.018Z" fill="#2C2C2B"/><path d="m116.182 47.439 12.459-3.815 1.339 4.302-4.342 1.339 5.113 1.298 1.217 3.937-13.107 4.017-1.34-4.301 4.261-1.299-5.072-1.34-1.177-3.814-.122.081-2.191-3.936 3.896-2.15-5.235-.244-1.989-3.612 12.012-6.655 2.191 3.936-3.936 2.192 5.276.203 1.988 3.611-11.241 6.25Zm-10.145-21.873c.203-.244.447-.487.69-.73 1.38-1.34 3.044-2.314 4.991-2.354 1.827-.04 3.409.73 4.667 2.029 1.096 1.136 1.786 2.516 1.786 4.098 0 1.015-.365 2.03-.852 2.922l-.609 1.055-4.018-2.556.65-1.015c.162-.243.243-.527.243-.812-.04-.284-.162-.527-.365-.77-.325-.325-.69-.528-1.177-.488-.649.041-1.461.731-1.907 1.137-.447.446-1.258 1.298-1.299 1.948-.04.446.081.811.406 1.136.203.203.446.365.771.365.406.04.933-.203 1.258-.406l1.096-.649 2.11 4.261-1.015.527c-1.217.65-2.556 1.056-3.936.812-1.339-.203-2.475-.933-3.409-1.907-1.217-1.258-1.866-2.84-1.785-4.626.081-1.38.568-2.557 1.38-3.612l-.447.365c-1.055.893-2.313 1.502-3.693 1.542-1.339.04-2.637-.446-3.733-1.217-1.461-1.015-2.394-2.435-2.638-4.18-.284-1.867.365-3.652 1.42-5.154 1.096-1.542 2.557-2.84 4.464-3.246 1.786-.365 3.49.081 4.992 1.096 1.298.892 2.232 2.11 2.556 3.692.203 1.015.041 2.03-.284 3.003l-.406 1.177-4.423-1.745.447-1.095c.121-.285.162-.569.081-.853-.081-.284-.284-.487-.528-.69-.406-.284-.771-.365-1.217-.243-.65.162-1.299.974-1.664 1.502-.365.527-.974 1.501-.933 2.15.04.447.243.771.608 1.055.244.163.487.244.812.203.406-.04.852-.405 1.177-.649l.933-.852 2.8 3.774Zm-72.558 4.342c-.203 1.258-.852 2.354-1.745 3.246-1.217 1.299-2.76 1.989-4.545 1.948-1.907-.04-3.53-.933-4.87-2.232-1.38-1.339-2.394-2.962-2.516-4.91-.08-1.826.61-3.45 1.867-4.748 1.096-1.136 2.435-1.867 4.018-1.948 1.014-.04 2.029.284 2.921.771l1.096.568-2.435 4.099-1.014-.609a1.168 1.168 0 0 0-.812-.203c-.284.041-.527.203-.73.406-.325.325-.487.69-.447 1.177.04.65.771 1.42 1.218 1.867.446.446 1.339 1.217 1.988 1.258.447.04.812-.122 1.136-.447a1.04 1.04 0 0 0 .325-.77c0-.407-.243-.934-.487-1.259l-.69-1.055 4.18-2.272.446.77-2.313-9.414 3.287-2.313 9.131 5.965-.122-10.956L46.1 7.345l10.307 10.713-4.707 1.908-1.867-2.03-2.678 1.096.08 2.76-2.596 1.055-2.963 2.07-2.313-1.543-2.353 1.664.73 2.638-4.099 2.881-.162-.65ZM17.734 45.856a8.494 8.494 0 0 1-2.354-.974c-1.014-.568-1.948-1.298-2.638-2.232-.446-.608-.77-1.339-1.014-2.07a5.97 5.97 0 0 1-.203-2.231c.122-.974.487-1.948.974-2.8.933-1.624 2.272-2.8 4.099-3.247 1.866-.487 3.733.04 5.397.974 1.664.933 3.003 2.273 3.53 4.14.528 1.785.163 3.57-.77 5.153-.934 1.623-2.273 2.8-4.1 3.287a4.75 4.75 0 0 1-1.298.162l4.83 1.745-1.462 4.018-2.313-.852-1.623 4.504 2.313.852-1.46 4.018-6.331-2.273.446-1.298c-.609-.528-1.299-.934-2.03-1.299a41.519 41.519 0 0 0-4.382-1.826l-2.232-.812 3.49-9.617 8.887 3.246.244-.568ZM62.98 16.11l.203 1.42-4.585.65-.203-1.42c-1.34 0-2.679-.244-3.734-1.137-1.136-.933-1.745-2.231-1.948-3.652-.203-1.501.04-2.922.934-4.139.77-1.055 1.947-1.664 3.205-2.029l-.162-1.217 4.586-.65.162 1.218c1.299 0 2.678.243 3.693 1.095 1.136.934 1.745 2.232 1.988 3.693.203 1.461-.04 2.84-.852 4.058-.77 1.137-1.988 1.745-3.287 2.11Zm14.082-2.434-.69 4.22-4.586-.73 2.15-13.554 4.79.77c.933.163 2.11.325 2.962.69.893.366 1.542 1.015 1.988 1.867.528.934.609 1.989.447 3.044-.122.811-.406 1.582-.893 2.191a3.959 3.959 0 0 1-1.542 1.299c-.528.243-1.136.446-1.705.446-.852.04-1.744-.081-2.597-.243h-.324Zm6.614-1.34c.406-1.095.934-2.15 1.745-2.962a6.072 6.072 0 0 1 1.867-1.339 5.84 5.84 0 0 1 2.191-.568c1.015-.04 1.989.162 2.922.487 1.745.65 3.165 1.745 3.936 3.45.812 1.785.61 3.692-.04 5.477-.65 1.786-1.745 3.328-3.49 4.18-1.705.812-3.49.771-5.194.122-1.745-.65-3.166-1.745-3.937-3.45-.811-1.744-.649-3.652 0-5.397Zm-72.964 37.66c1.583.608 3.247 1.338 4.708 2.272l.527-1.461-4.87-1.786-.365.974Zm6.98-9.213c.609.366 1.42.69 2.151.569.568-.122.933-.406 1.217-.893.285-.487.366-.934.163-1.461-.244-.69-.974-1.258-1.583-1.583-.568-.324-1.42-.73-2.11-.568-.568.122-.893.447-1.177.934-.284.486-.365.974-.203 1.501.163.609.933 1.136 1.542 1.502Zm44.68-29.096c.08-.08.162-.162.202-.243.081-.244.04-.69 0-.934-.08-.487-.203-.811-.527-.974l.325 2.151Zm-4.546.65-.324-2.192c-.04.04-.04.04-.04.081-.204.284-.204.812-.123 1.137.041.527.163.811.487.973Zm20.047-3.734-.121.852h.08c.285.04 1.137.163 1.38.122.082 0 .122-.04.203-.081a.31.31 0 0 0 .082-.203c0-.081 0-.162-.041-.244-.04-.08-.122-.121-.244-.162-.405-.162-.933-.243-1.339-.284ZM87.98 16.07c.203.527.568.852 1.096 1.055.527.203.973.162 1.501-.081.65-.365 1.055-1.177 1.299-1.867.243-.65.446-1.542.202-2.191-.203-.528-.608-.812-1.095-1.015-.528-.203-1.015-.203-1.502.082-.649.324-1.014 1.176-1.258 1.826-.324.649-.527 1.501-.243 2.19Z" fill="#fff"/><path d="m43.178 20.94-.163-11.647 3.003-1.217 9.374 9.739-3.49 1.42-1.866-2.029-3.45 1.38.082 2.76-2.273.933-2.678 1.866-2.354-1.542-3.043 2.151.73 2.638-3.043 2.11L30.8 16.435l2.637-1.866 9.74 6.37ZM17.896 47.195l.325-.933 5.235 1.907-1.055 2.922-2.314-.852-2.029 5.6 2.314.852-1.056 2.922-5.234-1.907.405-1.096c-.73-.69-1.542-1.218-2.434-1.664-1.42-.73-2.963-1.298-4.424-1.867l-1.704-.608 3.084-8.482 8.887 3.206Zm-2.232-2.8c-.933-.527-1.826-1.217-2.435-2.07-.405-.568-.73-1.217-.893-1.866-.202-.65-.243-1.34-.162-2.03a6.857 6.857 0 0 1 .893-2.556c.852-1.46 2.07-2.556 3.733-2.962 1.745-.447 3.45.04 4.951.933 1.502.852 2.76 2.07 3.247 3.815.487 1.623.121 3.246-.69 4.707-.852 1.461-2.07 2.597-3.734 3.003-1.745.325-3.408-.122-4.91-.974ZM28.65 27.311l3.125-1.705.284.487c.608 1.055 1.014 2.273.893 3.53-.163 1.218-.772 2.273-1.624 3.126-1.136 1.176-2.516 1.785-4.139 1.785-1.745-.04-3.246-.852-4.464-2.07-1.258-1.217-2.232-2.718-2.313-4.504-.081-1.664.568-3.125 1.704-4.302.974-1.014 2.192-1.704 3.653-1.745.933-.04 1.826.244 2.637.69l.528.284-1.826 3.085-.528-.325c-.365-.243-.77-.325-1.217-.284-.447.04-.812.284-1.096.568-.446.446-.65.974-.608 1.623.08.812.811 1.664 1.38 2.232.567.568 1.541 1.34 2.353 1.42.65.041 1.136-.162 1.583-.649.324-.324.486-.69.527-1.136.04-.568-.284-1.136-.568-1.583l-.284-.527Zm33.682-11.647.203 1.34-3.41.486-.202-1.339c-1.34.081-2.8-.081-3.855-.974-1.015-.852-1.583-1.988-1.745-3.287-.203-1.339 0-2.638.812-3.733.811-1.055 2.11-1.623 3.368-1.908l-.163-1.136 3.41-.487.161 1.136c1.34-.08 2.8.082 3.856.974 1.014.853 1.582 1.989 1.745 3.328.203 1.299-.041 2.557-.771 3.652-.73 1.096-2.11 1.664-3.41 1.948Zm14.244-2.678-.69 4.26-3.45-.527 1.948-12.377 4.22.65c.812.121 2.07.324 2.8.649.772.324 1.34.893 1.746 1.623.446.812.527 1.745.365 2.678-.122.69-.325 1.38-.771 1.948a4.007 4.007 0 0 1-1.34 1.136c-.446.244-.973.366-1.5.406-.812.04-1.705-.081-2.476-.203l-.852-.243Zm7.629-.447c.365-1.014.852-1.988 1.623-2.759.487-.487 1.055-.933 1.704-1.217.609-.285 1.258-.487 1.948-.528a6.648 6.648 0 0 1 2.678.446c1.583.569 2.882 1.583 3.572 3.166.73 1.623.568 3.368-.041 5.032-.609 1.623-1.583 3.084-3.165 3.855-1.542.73-3.165.69-4.748.122-1.583-.569-2.881-1.583-3.612-3.166-.69-1.623-.527-3.327.04-4.95Zm18.951 10.227 2.151 2.8-.447.365c-.974.771-2.069 1.38-3.327 1.42-1.218.04-2.354-.405-3.369-1.095-1.339-.934-2.15-2.192-2.394-3.815-.243-1.704.365-3.328 1.34-4.707 1.014-1.42 2.312-2.638 4.098-3.003 1.623-.365 3.165.08 4.504 1.014 1.177.812 2.029 1.908 2.314 3.328.202.893.04 1.826-.285 2.678l-.202.568-3.287-1.298.243-.568c.162-.406.203-.812.081-1.218-.122-.406-.406-.73-.73-.974-.528-.365-1.096-.487-1.705-.324-.811.203-1.542 1.055-1.988 1.704-.447.65-1.096 1.704-1.015 2.557.04.649.366 1.095.893 1.46.365.244.771.366 1.218.325.568-.081 1.095-.446 1.501-.811l.406-.406Zm8.562.324c1.664-.04 3.084.65 4.221 1.867.974 1.015 1.623 2.273 1.623 3.693 0 .933-.325 1.826-.771 2.597l-.325.528-3.003-1.908.325-.487c.243-.365.365-.77.325-1.177a1.616 1.616 0 0 0-.569-1.095c-.446-.447-.973-.69-1.623-.65-.852.041-1.704.772-2.272 1.3-.568.567-1.421 1.46-1.502 2.312-.081.65.122 1.136.568 1.623.325.325.69.528 1.137.569.568.04 1.176-.244 1.623-.487l.568-.325 1.583 3.165-.487.284c-1.096.609-2.313.974-3.531.771-1.217-.203-2.232-.852-3.084-1.704-1.136-1.177-1.704-2.557-1.623-4.18.081-1.745.974-3.206 2.191-4.383 1.299-1.339 2.841-2.272 4.626-2.313Zm6.331 14.772 7.061.284 1.542 2.8-10.957 6.087-1.623-2.922 5.194-2.881-6.98-.325-1.542-2.8 10.957-6.087 1.623 2.922-5.275 2.922Zm5.397 11.443 6.858 1.745.934 3.085-12.012 3.652-.974-3.166 5.681-1.745-6.736-1.785-.934-3.084 12.012-3.652.974 3.206-5.803 1.744ZM9.983 50.32c1.867.69 4.098 1.664 5.722 2.84l.974-2.718-5.966-2.192-.73 2.07Zm7.386-9.05c.73.447 1.663.812 2.556.61.73-.163 1.217-.528 1.583-1.178.365-.649.446-1.258.203-1.947-.284-.853-1.096-1.502-1.867-1.908-.73-.406-1.664-.811-2.516-.65-.73.163-1.218.569-1.583 1.218-.365.65-.487 1.299-.243 1.989.324.811 1.136 1.46 1.867 1.866Zm19.275-20.493L34.981 19.6l.527 1.948 1.136-.77Zm11.079-5.965-1.38-1.502.081 2.03 1.299-.528Zm14.203-2.232a4.95 4.95 0 0 0 .69-.284c.243-.162.446-.365.568-.65.122-.365.081-.892.04-1.217-.162-1.177-.811-1.623-1.785-1.623l.487 3.774Zm-3.409.487-.527-3.774c-.406.122-.771.284-1.015.568-.325.446-.325 1.055-.243 1.583.162 1.217.77 1.623 1.785 1.623Zm18.87-5.154-.325 2.03.65.121c.365.04 1.217.203 1.582.122.203-.04.366-.122.487-.284.122-.163.203-.325.244-.528a.902.902 0 0 0-.122-.65c-.122-.202-.325-.324-.527-.405-.406-.162-1.056-.243-1.502-.325l-.487-.08Zm10.186 5.763c-.284.811-.487 1.785-.162 2.637.284.69.73 1.137 1.42 1.38a2.43 2.43 0 0 0 1.988-.122c.771-.446 1.258-1.339 1.583-2.15.284-.771.528-1.786.203-2.598-.284-.69-.771-1.095-1.461-1.339-.69-.243-1.34-.243-1.989.082-.811.365-1.298 1.298-1.582 2.11Z" fill="#2C2C2B"/><path d="m6.655 52.065 2.679-7.386 8.887 3.247.324-.934 4.14 1.502-.65 1.785-2.313-.852-2.435 6.736 2.314.853-.65 1.785-4.139-1.501.325-.893a10.414 10.414 0 0 0-2.882-2.029c-1.136-.568-2.637-1.217-4.504-1.867l-1.096-.446Zm2.557-1.38c3.246 1.177 5.519 2.354 6.777 3.45l1.46-4.058-7.1-2.598-1.137 3.206Zm6.777-6.817c-1.015-.569-1.745-1.218-2.273-1.908a5.488 5.488 0 0 1-.811-1.704c-.163-.609-.244-1.217-.163-1.786.081-.77.366-1.542.853-2.353.852-1.461 1.947-2.354 3.368-2.72 1.42-.364 2.921-.08 4.504.853 1.583.933 2.597 2.07 2.963 3.45.405 1.38.162 2.8-.65 4.22-.852 1.46-1.948 2.353-3.368 2.719-1.38.405-2.881.121-4.423-.771Zm1.095-2.07c1.096.65 2.11.852 2.963.69.852-.203 1.542-.69 1.988-1.461.447-.771.568-1.623.284-2.435-.284-.852-.974-1.582-2.11-2.232-1.136-.65-2.11-.892-2.962-.73-.852.162-1.502.69-1.989 1.501-.487.812-.568 1.623-.284 2.476.284.811.974 1.542 2.11 2.191Zm12.418-14.284 2.07-1.096c.649 1.096.933 2.15.811 3.125-.121.974-.608 1.907-1.46 2.8-1.056 1.095-2.273 1.623-3.693 1.582-1.42 0-2.76-.649-4.058-1.907-1.38-1.299-2.07-2.678-2.151-4.099-.081-1.42.446-2.718 1.542-3.855.974-1.014 2.029-1.542 3.246-1.582.69-.04 1.461.162 2.313.608l-1.176 2.03c-.528-.325-1.056-.447-1.583-.366-.528.081-1.015.325-1.461.771-.568.609-.852 1.299-.771 2.11.081.812.609 1.664 1.583 2.598 1.014 1.014 1.948 1.542 2.76 1.582.81.04 1.5-.203 2.069-.811.405-.447.649-.934.69-1.543-.082-.568-.285-1.217-.73-1.947Zm14.203-5.479-2.029 1.42-2.313-1.541-3.733 2.597.73 2.637-1.988 1.38-2.881-11.85 1.988-1.38 10.226 6.737Zm-6.046-1.258-3.693-2.556 1.177 4.342 2.516-1.786Zm16.678-3.165-2.313.933-1.866-2.029-4.22 1.705.08 2.76-2.272.892-.162-12.174 2.231-.893 8.522 8.806Zm-5.6-2.557-3.043-3.327.162 4.464 2.881-1.137Zm12.945.122.203 1.299-2.231.324-.203-1.298c-1.827.203-3.125-.081-3.977-.812-.852-.73-1.38-1.704-1.542-2.922-.203-1.298.04-2.394.73-3.287.65-.892 1.867-1.501 3.571-1.826l-.162-1.095 2.232-.325.162 1.096c1.786-.203 3.125.08 3.977.77.852.69 1.38 1.705 1.542 2.922.162 1.258-.04 2.313-.69 3.247-.65.974-1.826 1.623-3.611 1.907Zm-.284-1.867c.61-.08 1.096-.243 1.502-.527.406-.244.65-.568.812-.933.121-.366.162-.853.08-1.502-.243-1.623-1.257-2.313-3.043-2.07l.65 5.032Zm-2.232.284-.69-5.031c-.973.121-1.623.446-1.988.933-.365.487-.487 1.177-.365 2.029.244 1.664 1.258 2.354 3.044 2.07Zm13.96 2.598 1.786-11.2 3.652.568c1.38.202 2.273.405 2.678.608.61.284 1.096.73 1.461 1.34.325.649.447 1.38.325 2.272-.122.69-.325 1.258-.65 1.664-.324.446-.69.73-1.136.974-.446.203-.852.324-1.258.324-.568.04-1.339-.04-2.394-.203l-1.46-.243-.69 4.22-2.314-.324Zm3.734-8.969-.487 3.166 1.258.203c.892.121 1.501.162 1.826.121a1.61 1.61 0 0 0 .811-.446c.203-.244.325-.487.406-.812.081-.405 0-.77-.203-1.055a1.813 1.813 0 0 0-.811-.65c-.244-.08-.812-.202-1.623-.324l-1.177-.203Zm7.913 5.52c.406-1.096.893-1.949 1.501-2.557a5.31 5.31 0 0 1 1.542-1.096c.569-.284 1.137-.446 1.745-.446.771-.04 1.583.08 2.435.406 1.583.568 2.638 1.501 3.247 2.84.608 1.299.568 2.84-.081 4.586-.61 1.745-1.583 2.881-2.882 3.53-1.298.65-2.719.65-4.301.081-1.583-.568-2.679-1.542-3.247-2.84-.608-1.299-.568-2.8.04-4.505Zm2.232.73c-.447 1.217-.487 2.232-.162 3.043.324.812.933 1.38 1.785 1.705.852.324 1.664.243 2.435-.163.77-.405 1.38-1.258 1.826-2.475.446-1.217.528-2.232.203-3.044-.325-.811-.933-1.339-1.826-1.663-.893-.325-1.705-.284-2.476.121-.73.406-1.298 1.218-1.785 2.476Zm16.07 10.145 1.42 1.867c-.974.811-1.988 1.258-2.962 1.298-.974.04-1.989-.284-3.003-.974-1.218-.852-1.948-1.988-2.151-3.409-.203-1.42.203-2.84 1.217-4.301 1.096-1.542 2.313-2.475 3.734-2.76 1.379-.284 2.759 0 4.058.934 1.136.811 1.826 1.785 2.069 2.962.163.69.082 1.502-.243 2.395l-2.191-.853c.243-.568.284-1.095.121-1.623a2.372 2.372 0 0 0-.974-1.299c-.689-.486-1.42-.608-2.191-.446-.771.203-1.542.852-2.313 1.948-.812 1.177-1.218 2.15-1.136 2.962.08.812.446 1.42 1.136 1.908.487.365 1.055.487 1.623.446.528-.162 1.136-.487 1.786-1.055Zm8.765 8.562 1.055 2.07c-1.136.609-2.191.852-3.165.69-.974-.162-1.907-.65-2.76-1.542-1.055-1.096-1.542-2.354-1.46-3.734.081-1.42.73-2.759 2.029-3.977 1.379-1.298 2.759-1.988 4.179-1.988 1.421-.04 2.679.528 3.815 1.664.974 1.014 1.461 2.11 1.461 3.287 0 .69-.203 1.46-.69 2.272l-1.988-1.258c.324-.487.486-1.014.405-1.582-.04-.528-.284-1.015-.73-1.461-.568-.609-1.258-.893-2.07-.852-.811.04-1.664.527-2.637 1.46-1.015 1.015-1.583 1.908-1.664 2.679-.081.811.162 1.501.73 2.07.406.446.934.69 1.502.73.608.122 1.258-.081 1.988-.528Zm9.618.65 1.055 1.866-6.615 3.653 8.847.365 1.095 1.988-9.942 5.52-1.055-1.867 6.493-3.612-8.725-.406-1.096-1.988 9.943-5.52Zm6.411 12.255.609 2.07-7.223 2.191 8.603 2.191.649 2.192-10.875 3.327-.609-2.07 7.101-2.15-8.44-2.232-.69-2.191 10.875-3.328Z" fill="#FC0"/></g><defs><clipPath id="a"><path fill="#fff" d="M0 0h137v137H0z"/></clipPath></defs></svg>