<svg width="171" height="87" viewBox="0 0 171 87" fill="none" xmlns="http://www.w3.org/2000/svg">
<path d="M1 35.4242C26.0363 34.7462 51.1064 31.3015 76.2929 30.8342C78.3476 30.796 80.4074 30.7415 82.4705 30.6805M82.4705 30.6805C102.809 30.0786 123.468 28.8378 142.811 36.3292C153.703 40.5472 172.537 51.2282 169.715 65.6794C167.29 78.1033 151.447 85.4923 140.102 86.3667C111.547 88.5675 75.0003 63.2254 82.2931 31.416C82.3502 31.1672 82.4093 30.9221 82.4705 30.6805ZM82.4705 30.6805C85.5858 18.3879 94.1045 15.3544 106.229 15.7066C119.668 16.0969 133.033 16.6414 146.468 16.775M146.468 16.775C148.452 16.7948 150.437 16.8056 152.425 16.8056C155.668 16.8056 163.483 18.5928 156.618 17.0642C155.651 16.8488 146.295 15.3425 146.295 16.2237C146.295 16.4189 146.355 16.6024 146.468 16.775ZM146.468 16.775C148.238 19.4813 163.127 19.5338 167.612 20.1374M167.612 20.1374C168.106 20.2039 168.473 20.2771 168.683 20.3612C170.484 21.0831 169.661 20.8993 167.612 20.1374ZM167.612 20.1374C162.216 18.1314 148.321 12.118 151.457 8.07811C152.763 6.39547 154.418 5.05857 154.296 2.84163C154.148 0.171537 150.231 0.514306 150.812 0.514306M150.876 27.5099C146.148 21.5877 163.639 21.2598 166.435 19.158" stroke="#fff" stroke-width="2" stroke-linecap="round"/>
</svg>
